<?xml version="1.0" encoding="utf-8"?>
<!DOCTYPE svg PUBLIC "-//W3C//DTD SVG 1.1//EN" "http://www.w3.org/Graphics/SVG/1.1/DTD/svg11.dtd">
<svg xmlns="http://www.w3.org/2000/svg" version="1.1" x="0" y="0" width="120" height="24" viewBox="0 0 120 24">
  <path stroke="#666" fill="none" d="M 0,0 L 120,0 L 120,24 L 0,24 z"/>
  <g>
    <svg x="0" y="0" width="24" height="24" viewBox="0 0 24 24">
      <path fill="#666" d="M 10.56,5.3999996 L 4.56,12.0 L 10.56,18.6 L 10.56,15.0 Q 18.96,15.6 21.359999,4.7999997 Q 18.96,9.6 10.56,9.0 z"/>
    </svg>
  </g>
  <g>
    <svg x="24" y="0" width="24" height="24" viewBox="0 0 24 24">
      <path fill="#666" d="M 13.44,18.6 L 19.44,12.0 L 13.44,5.3999996 L 13.44,9.0 Q 5.0399995,8.4 2.6399994,19.2 Q 5.0399995,14.4 13.44,15.0 z"/>
    </svg>
  </g>
  <g>
    <svg x="48" y="0" width="24" height="24" viewBox="0 0 24 24">
      <path fill="#666" d="M 7,5 l -2,2 l 5,5 l -5,5 l 2,2 l 5,-5 l 5,5 l 2,-2 l -5,-5 l 5,-5 l -2,-2 l -5,5 z"/>
    </svg>
  </g>
  <g>
    <svg x="72" y="0" width="24" height="24" viewBox="0 0 24 24">
      <path fill="#666" d="M 4,4 L 14,4 L 14,9 L 19,9 L 19,19 L 9,19 L 9,14 L 4,14 z"/>
    </svg>
  </g>
  <g>
    <svg x="96" y="0" width="24" height="24" viewBox="0 0 24 24">
      <path fill="#666" d="M12.0 2.3999999 L14.155334 9.033437 L21.130142 9.033437 L15.487404 13.133126 L17.642738 19.766563 L12.0 15.666874 L6.3572617 19.766563 L8.512596 13.133126 L2.8698575 9.033437 L9.844666 9.033437 z"/>
    </svg>
  </g>
</svg>
