<?xml version="1.0" encoding="utf-8"?>
<!DOCTYPE svg PUBLIC "-//W3C//DTD SVG 1.1//EN" "http://www.w3.org/Graphics/SVG/1.1/DTD/svg11.dtd">
<svg xmlns="http://www.w3.org/2000/svg" version="1.1" x="0" y="0" width="144" height="24" viewBox="0 0 144 24">
  <path stroke="#666" fill="none" d="M 0,0 L 144,0 L 144,24 L 0,24 z"/>

  <!-- go finder -->
  <g>
    <svg x="0" y="0" width="24" height="24" viewBox="0 0 24 24">
      <path fill="#666" d="M 2,2 l 0,6 l 6,0 l 0,-6 z M 9,2 l 0,6 l 6,0 l 0,-6 z M 16,2 l 0,6 l 6,0 l 0,-6 z M 2,9 l 0,6 l 6,0 l 0,-6 z M 9,9 l 0,6 l 6,0 l 0,-6 z M 16,9 l 0,6 l 6,0 l 0,-6 z M 2,16 l 0,6 l 6,0 l 0,-6 z M 9,16 l 0,6 l 6,0 l 0,-6 z M 16,16 l 0,6 l 6,0 l 0,-6 z"/>
    </svg>
  </g>

  <!-- add -->
  <g>
    <svg x="72" y="0" width="24" height="24" viewBox="0 0 24 24">
      <path fill="#666" d="M12,2C6.48,2 2,6.48 2,12s4.48,10 10,10 10,-4.48 10,-10S17.52,2 12,2zM17,13h-4v4h-2v-4L7,13v-2h4L11,7h2v4h4v2z"/>
    </svg>
  </g>

  <!-- share -->
  <g>
    <svg x="96" y="0" width="24" height="24" viewBox="0 0 24 24">
      <path fill="#666" d="M18,16.08c-0.76,0 -1.44,0.3 -1.96,0.77L8.91,12.7c0.05,-0.23 0.09,-0.46 0.09,-0.7s-0.04,-0.47 -0.09,-0.7l7.05,-4.11c0.54,0.5 1.25,0.81 2.04,0.81 1.66,0 3,-1.34 3,-3s-1.34,-3 -3,-3 -3,1.34 -3,3c0,0.24 0.04,0.47 0.09,0.7L8.04,9.81C7.5,9.31 6.79,9 6,9c-1.66,0 -3,1.34 -3,3s1.34,3 3,3c0.79,0 1.5,-0.31 2.04,-0.81l7.12,4.16c-0.05,0.21 -0.08,0.43 -0.08,0.65 0,1.61 1.31,2.92 2.92,2.92 1.61,0 2.92,-1.31 2.92,-2.92s-1.31,-2.92 -2.92,-2.92z"/>
    </svg>
  </g>

  <!-- fullscreen -->
  <g>
    <svg x="120" y="0" width="24" height="24" viewBox="0 0 24 24">
      <path fill="#666" d="M7,14L5,14v5h5v-2L7,17v-3zM5,10h2L7,7h3L10,5L5,5v5zM17,17h-3v2h5v-5h-2v3zM14,5v2h3v3h2L19,5h-5z"/>
    </svg>
  </g>
</svg>
