<?xml version="1.0" encoding="utf-8"?>
<!DOCTYPE svg PUBLIC "-//W3C//DTD SVG 1.1//EN" "http://www.w3.org/Graphics/SVG/1.1/DTD/svg11.dtd">
<svg xmlns="http://www.w3.org/2000/svg" version="1.1" x="0" y="0" width="144" height="24" viewBox="0 0 144 24">
  <path stroke="#666" fill="none" d="M 0,0 L 144,0 L 144,24 L 0,24 z"/>

  <!-- go back editor -->
  <g>
    <svg x="0" y="0" width="24" height="24" viewBox="0 0 24 24">
      <path fill="#666" d="M 2,2 l 0,20 l 20,0 l 0,-20 z"/>
    </svg>
  </g>

  <!-- add -->
  <g>
    <svg x="72" y="0" width="24" height="24" viewBox="0 0 24 24">
      <path fill="#666" d="M12,2C6.48,2 2,6.48 2,12s4.48,10 10,10 10,-4.48 10,-10S17.52,2 12,2zM17,13h-4v4h-2v-4L7,13v-2h4L11,7h2v4h4v2z"/>
    </svg>
  </g>

  <!-- trash -->
  <g>
    <svg x="96" y="0" width="24" height="24" viewBox="0 0 24 24">
      <path fill="#666" d="M12,2C6.48,2 2,6.48 2,12s4.48,10 10,10 10,-4.48 10,-10S17.52,2 12,2zM17,13L7,13v-2h10v2z"/>
    </svg>
  </g>

  <!-- menu -->
  <g>
    <svg x="120" y="0" width="24" height="24" viewBox="0 0 24 24">
      <path
	  	fill="#666"
	  	d="M 9,5 v 3 h 6 v -3 z M 9,10 v 3 h 6 v -3 z M 9,15 v 3 h 6 v -3 z"/>
    </svg>
  </g>
</svg>
