<?xml version="1.0" encoding="utf-8"?>
<!DOCTYPE svg PUBLIC "-//W3C//DTD SVG 1.1//EN" "http://www.w3.org/Graphics/SVG/1.1/DTD/svg11.dtd">
<svg version="1.1" xmlns="http://www.w3.org/2000/svg" x="0" y="0" width="24" height="24"  viewBox="0 0 24 24">
	<path
		fill="#666"
		d="M 2,2 l 0,6 l 6,0 l 0,-6 z M 9,2 l 0,6 l 6,0 l 0,-6 z M 16,2 l 0,6 l 6,0 l 0,-6 z M 2,9 l 0,6 l 6,0 l 0,-6 z M 9,9 l 0,6 l 6,0 l 0,-6 z M 16,9 l 0,6 l 6,0 l 0,-6 z M 2,16 l 0,6 l 6,0 l 0,-6 z M 9,16 l 0,6 l 6,0 l 0,-6 z M 16,16 l 0,6 l 6,0 l 0,-6 z"/>
</svg>
